<?xml version="1.0" encoding="UTF-8" standalone="no"?>
<svg
   xmlns:dc="http://purl.org/dc/elements/1.1/"
   xmlns:cc="http://creativecommons.org/ns#"
   xmlns:rdf="http://www.w3.org/1999/02/22-rdf-syntax-ns#"
   xmlns:svg="http://www.w3.org/2000/svg"
   xmlns="http://www.w3.org/2000/svg"
   xmlns:sodipodi="http://sodipodi.sourceforge.net/DTD/sodipodi-0.dtd"
   xmlns:inkscape="http://www.inkscape.org/namespaces/inkscape"
   height="24"
   version="1.1"
   width="24"
   id="svg3420"
   inkscape:version="0.91 r13725"
   sodipodi:docname="icon-ios.svg"
   inkscape:export-filename="/Users/mjmlocal/CERNmap-AppStore.png"
   inkscape:export-xdpi="3840"
   inkscape:export-ydpi="3840">
  <metadata
     id="metadata3464">
    <rdf:RDF>
      <cc:Work
         rdf:about="">
        <dc:format>image/svg+xml</dc:format>
        <dc:type
           rdf:resource="http://purl.org/dc/dcmitype/StillImage" />
        <dc:title></dc:title>
      </cc:Work>
    </rdf:RDF>
  </metadata>
  <defs
     id="defs3462" />
  <sodipodi:namedview
     pagecolor="#ffffff"
     bordercolor="#666666"
     borderopacity="1"
     objecttolerance="10"
     gridtolerance="10"
     guidetolerance="10"
     inkscape:pageopacity="1"
     inkscape:pageshadow="2"
     inkscape:window-width="1440"
     inkscape:window-height="802"
     id="namedview3460"
     showgrid="false"
     inkscape:zoom="22.291667"
     inkscape:cx="3.6560745"
     inkscape:cy="13.275866"
     inkscape:window-x="0"
     inkscape:window-y="0"
     inkscape:window-maximized="1"
     inkscape:current-layer="svg3420" />
  <g
     transform="matrix(1.0795455,0,0,1.0795455,-0.954546,-1112.2386)"
     id="g3422">
    <g
       id="g3424">
      <g
         id="g3426">
        <path
           d="m 12,1028.6947 -5,0.8 0,15.2053 5,-0.8 z"
           id="path3428"
           inkscape:connector-curvature="0"
           style="fill:#27ae60"
           sodipodi:nodetypes="ccccc" />
        <path
           d="m 7,1046.7 -6.8526315,1.3 0,5.3526 6.8526315,0.9 z"
           id="path3430"
           inkscape:connector-curvature="0"
           style="fill:#3498db"
           sodipodi:nodetypes="ccccc" />
        <path
           d="m 0.1473685,1028.6947 0,16.7053 L 7,1044.1 7,1029.4947 Z"
           id="path3432"
           inkscape:connector-curvature="0"
           style="fill:#2ecc71"
           sodipodi:nodetypes="ccccc" />
        <path
           d="m 12,1044.9 -5,2.6 0,6.7526 5,-0.9 z"
           id="path3434"
           inkscape:connector-curvature="0"
           style="fill:#2980b9"
           sodipodi:nodetypes="ccccc" />
        <path
           d="m 12,1041.8 -5,2.3 0,3.4 5.023,-2 z"
           id="path3436"
           inkscape:connector-curvature="0"
           style="fill:#f39c12" />
        <path
           d="M 7.9110412,1028.3706 11.453,1042.1 12,1041.9 l 0.04155,-13.4892 z"
           id="path3438"
           inkscape:connector-curvature="0"
           style="fill:#f39c12"
           sodipodi:nodetypes="ccccc" />
        <path
           d="M 11.080696,1028.1615 14.5,1043.2 l 2.5,0 0,-13.7053 z"
           id="path3440"
           inkscape:connector-curvature="0"
           style="fill:#2ecc71"
           sodipodi:nodetypes="ccccc" />
        <path
           d="m 12,1032.4 0,10.3 2.5,-0.3 -2.422,-10 z"
           id="path3442"
           inkscape:connector-curvature="0"
           style="fill:#f1c40f" />
        <path
           d="M 17.026,1041.3 12,1042 l 0,4.2 5,-0.5 z"
           id="path3444"
           inkscape:connector-curvature="0"
           style="fill:#f1c40f" />
        <path
           d="m 17,1029.4947 0,11.9053 6.852632,-1.4 0,-11.3053 z"
           id="path3446"
           inkscape:connector-curvature="0"
           style="fill:#27ae60"
           sodipodi:nodetypes="ccccc" />
        <path
           d="M 23.852632,1042.4 17,1044.8 l 0,9.4526 6.852632,-0.9 z"
           id="path3448"
           inkscape:connector-curvature="0"
           style="fill:#2980b9"
           sodipodi:nodetypes="ccccc" />
        <path
           d="m 17,1044.8 -4.997,0.7 -0.003,7.8526 5,0.9 z"
           id="path3450"
           inkscape:connector-curvature="0"
           style="fill:#3498db"
           sodipodi:nodetypes="ccccc" />
        <path
           d="m 7,1044.1 -7.11927189,1.2571 0.04155435,3.4247 L 7,1047.5 Z"
           id="path3452"
           inkscape:connector-curvature="0"
           style="fill:#f1c40f"
           sodipodi:nodetypes="ccccc" />
        <path
           d="M 24.202381,1038.7922 17,1041.4 l 0,3.4 7.243935,-2.3895 z"
           id="path3454"
           inkscape:connector-curvature="0"
           style="fill:#f39c12"
           sodipodi:nodetypes="ccccc" />
      </g>
      <g
         id="g3456"
         style="fill:#c0392b">
        <path
           d="m 8.4023,1035.8 c 0.3907,-0.4 0.586,-0.9 0.586,-1.4 0,-0.6 -0.1953,-1.1 -0.586,-1.5 -0.3906,-0.3 -0.8619,-0.5 -1.414,-0.5 -0.5521,0 -1.0235,0.2 -1.4141,0.5 -0.3906,0.4 -0.5859,0.9 -0.5859,1.5 0,0.5 0.1953,1 0.5859,1.4 0.3906,0.4 0.862,0.6 1.4141,0.6 0.5521,0 1.0234,-0.2 1.414,-0.6 m 2.5857,-1.4 c 0,0.5 -0.086,1 -0.258,1.4 l -2.8433,6 c -0.0833,0.2 -0.2083,0.3 -0.375,0.4 -0.1614,0.1 -0.3359,0.2 -0.5234,0.2 -0.1875,0 -0.3646,-0.1 -0.5313,-0.2 -0.1614,-0.1 -0.2812,-0.2 -0.3593,-0.4 l -2.8516,-6 c -0.1719,-0.4 -0.2578,-0.9 -0.2578,-1.4 0,-1.1 0.3906,-2.1 1.1719,-2.9 0.7812,-0.7 1.7239,-1.1 2.8281,-1.1 1.1041,0 2.0469,0.4 2.8281,1.1 0.7816,0.8 1.1716,1.8 1.1716,2.9"
           id="path3458"
           inkscape:connector-curvature="0"
           style="fill:#c0392b" />
      </g>
    </g>
  </g>
  <path
     d="m 17.704906,18.836556 c 0,-0.496031 -0.433969,-0.653718 -0.77325,-0.653718 -0.2295,0 -0.379031,0.0151 -0.483937,0.02512 -0.01491,0.364218 -0.02981,0.699093 -0.02981,1.058156 l 0,0.274312 c 0.04959,0.0067 0.283219,0.0055 0.334313,0.0046 0.411843,-0.0086 0.952687,-0.139406 0.952687,-0.708468 z m 4.313719,2.626032 -0.163313,-0.0016 c -0.199687,-0.27075 -2.293218,-2.454375 -2.474531,-2.647219 -0.005,0.184406 -0.0052,0.568312 -0.0052,0.941531 0,0.495656 0.0375,1.251938 0.05944,1.660688 -0.05063,-0.0092 -0.125438,-0.01828 -0.212625,-0.01828 -0.08803,0 -0.160219,0.0081 -0.218532,0.01828 0.04087,-0.527344 0.05231,-1.383282 0.05231,-2.187844 0,-0.6285 -0.0093,-0.973125 -0.01669,-1.290188 l 0.1635,0.0014 c 0.2115,0.229688 2.292938,2.383875 2.47425,2.576907 0.0049,-0.184407 0.0053,-0.510094 0.0053,-0.8835 0,-0.495469 -0.03769,-1.251938 -0.05963,-1.660407 0.05081,0.0088 0.125438,0.018 0.212719,0.018 0.08831,0 0.160313,-0.0079 0.218625,-0.018 -0.04106,0.52725 -0.0525,1.383094 -0.0525,2.18775 0,0.628407 0.0094,0.985125 0.01678,1.302469 z m -3.776156,-0.0631 c -0.04547,0 -0.217594,0.0016 -0.312563,0.01659 -0.197156,-0.300469 -0.828656,-1.247062 -1.258031,-1.688906 -0.01285,0 -0.253875,2.81e-4 -0.253875,2.81e-4 l 0,0.396563 c 0,0.428906 0.01988,0.862968 0.03994,1.291968 -0.08494,-0.0151 -0.238312,-0.0166 -0.269718,-0.0166 -0.03141,0 -0.184782,0.0016 -0.269719,0.0166 0.02006,-0.429093 0.04012,-0.863062 0.04012,-1.291968 l 0,-0.858 c 0,-0.429094 -0.01997,-0.863157 -0.04012,-1.292063 0.18975,0.015 0.429656,0.02485 0.619312,0.02485 0.189469,0 0.379032,-0.02485 0.5685,-0.02485 0.563719,0 1.080282,0.1665 1.080282,0.79425 0,0.664125 -0.661875,0.903 -1.041,0.952781 0.244312,0.304313 1.119937,1.370532 1.40925,1.695 -0.09956,-0.01491 -0.266907,-0.0165 -0.312375,-0.0165 z m -2.929969,0.0165 c 0,9.4e-5 0,9.4e-5 0,9.4e-5 -0.179156,-0.0092 -0.427969,-0.0165 -0.664125,-0.02071 -0.136031,-0.0023 -0.268219,-0.0038 -0.372469,-0.0041 -0.01481,0 -0.02991,0 -0.04406,0 -0.304407,0 -0.771375,0.0098 -1.075782,0.02494 0.02006,-0.434156 0.04022,-0.868125 0.04022,-1.297125 l 0,-0.857812 c 0,-0.429188 -0.02016,-0.863156 -0.04022,-1.287 0.299344,0.015 0.761344,0.02485 1.060594,0.02485 0.299344,0 0.857719,-0.01322 1.030406,-0.02485 -0.0074,0.04669 -0.01181,0.102094 -0.01181,0.170156 0,0.06797 0.0067,0.138094 0.01181,0.172125 -0.328593,-0.02465 -0.915562,-0.06488 -1.563937,-0.06488 -0.0053,0.214406 -0.01519,1.124156 -0.01519,1.249125 0.588563,0 0.965719,-0.02522 1.260094,-0.04988 -0.0098,0.04988 -0.015,0.139313 -0.015,0.189094 0,0.04988 0.0051,0.12375 0.015,0.173812 -0.344156,-0.03515 -1.114406,-0.045 -1.260094,-0.045 -0.0089,0.166782 -0.0011,1.246313 0.0049,1.337438 0.364594,-0.0053 1.299094,-0.03366 1.639594,-0.06497 -0.0053,0.03778 -0.01172,0.115594 -0.01172,0.191437 0,0.07584 0.0044,0.131063 0.01172,0.183282 z M 9.4820931,19.693525 c 0,-1.072594 0.8111249,-1.786031 1.9136249,-1.786031 0.429094,0 0.920063,0.132094 1.194188,0.24975 -0.05728,0.126844 -0.104344,0.294562 -0.124313,0.399187 l -0.02991,0.0099 c -0.211969,-0.234656 -0.552938,-0.438 -1.057406,-0.438 -0.640407,0 -1.377094,0.51825 -1.377094,1.552219 0,1.006593 0.750844,1.541437 1.422094,1.541437 0.603187,0 0.891844,-0.28125 1.151062,-0.500344 l 0.01988,0.01997 -0.07341,0.391125 c -0.118875,0.09 -0.531,0.346406 -1.151156,0.346406 -1.122657,0 -1.8875629,-0.70725 -1.8875629,-1.785656 z"
     style="fill:#ffffff"
     id="path3"
     inkscape:connector-curvature="0" />
  <path
     style="fill:#27ae60;fill-opacity:1;fill-rule:evenodd;stroke:none;stroke-width:1px;stroke-linecap:butt;stroke-linejoin:miter;stroke-opacity:1"
     d="m 10.856074,-2.781308 1.121495,4.8448592 0.04486,-4.9345787 z"
     id="path3451"
     inkscape:connector-curvature="0"
     sodipodi:nodetypes="cccc" />
</svg>
